<svg xmlns="http://www.w3.org/2000/svg" viewBox="0 0 303.9 74.21">
	<defs>
		<style>
			.cls-1,
			.cls-2 {
				fill: #fff;
			}

			.cls-1 {
				fill-rule: evenodd;
			}
		</style>
	</defs>
	<title>logo工具包</title>
	<polygon class="cls-1"
		points="37.87 46.86 24.12 21.72 18.64 21.72 35.46 52.49 40.27 52.49 57.1 21.72 51.62 21.72 37.87 46.86" />
	<path class="cls-1"
		d="M232.08,21.72H213.82V52.49h18.26a15.39,15.39,0,1,0,0-30.77Zm-.13,26H218.62V26.53h13.5A10.58,10.58,0,1,1,232,47.68Z" />
	<path class="cls-1"
		d="M153.76,36.66a8.89,8.89,0,0,0-6.53-14.94H125.36V52.49H148.2a8.89,8.89,0,0,0,5.56-15.83Zm-5.56,11h-18V26.53h17.06a4.09,4.09,0,1,1,0,8.17H135.09l-3,4.81H148.2a4.09,4.09,0,0,1,0,8.17Z" />
	<polygon class="cls-1" points="258.77 21.72 252.28 21.72 266.31 37.16 269.56 33.58 258.77 21.72" />
	<path class="cls-1"
		d="M191.7,37.1h4.81A12.5,12.5,0,1,1,184,24.61a9.61,9.61,0,0,1,8.68,5.47l3.37-5.4A17.33,17.33,0,1,0,198,27Z" />
	<path class="cls-1"
		d="M104.93,34.7H91a4.09,4.09,0,1,1,0-8.17h18.87l3-4.81H91a8.9,8.9,0,1,0,0,17.79h13.94a4.09,4.09,0,1,1,0,8.17H85.1l-3,4.81h22.84a8.9,8.9,0,0,0,0-17.79Z" />
	<polygon class="cls-1" points="65.75 52.49 70.56 52.49 70.56 21.24 65.75 24.24 65.75 52.49" />
	<polygon class="cls-1"
		points="269.1 38.37 269.1 52.49 273.91 52.49 273.91 40.23 290.74 21.72 284.24 21.72 269.1 38.37" />
	<circle class="cls-2" cx="184.01" cy="37.1" r="3.85" />
</svg>